<svg width="32" height="32" viewBox="0 0 32 32" fill="none" xmlns="http://www.w3.org/2000/svg">
<g opacity="0.01">
<g opacity="0.45">
<path fill-rule="evenodd" clip-rule="evenodd" d="M6.66699 25.3332H25.3337V6.6665H6.66699V25.3332ZM6.68878 25.3124H25.314V6.6862H6.68878V25.3124Z" fill="#00AA2A"/>
<path fill-rule="evenodd" clip-rule="evenodd" d="M8 26.6665H24V5.33316H8V26.6665ZM8.021 26.6449H23.981V5.35318H8.021V26.6449Z" fill="#E9007E"/>
<path fill-rule="evenodd" clip-rule="evenodd" d="M5.3335 23.9998H26.6668V7.99982H5.3335V23.9998ZM5.3559 23.9797H26.6466V8.0187H5.3559V23.9797Z" fill="#3A4D8B"/>
<path fill-rule="evenodd" clip-rule="evenodd" d="M5.3335 23.7989L5.34273 23.8149H26.6668L16.014 5.33331L5.3335 23.7989ZM26.6576 23.8092L5.36121 23.7932L16.014 5.34357L26.6576 23.8092Z" fill="#13C2C2"/>
<path fill-rule="evenodd" clip-rule="evenodd" d="M16.0003 10.6665C13.055 10.6665 10.667 13.0545 10.667 15.9998C10.667 18.9452 13.055 21.3332 16.0003 21.3332C18.9457 21.3332 21.3337 18.9452 21.3337 15.9998C21.3337 13.0545 18.9457 10.6665 16.0003 10.6665ZM16.0003 10.6934C18.9257 10.6934 21.307 13.0747 21.307 16C21.307 18.9254 18.9257 21.3067 16.0003 21.3067C13.075 21.3067 10.6937 18.9254 10.6937 16C10.6937 13.0747 13.075 10.6934 16.0003 10.6934Z" fill="#EF00CD"/>
<path fill-rule="evenodd" clip-rule="evenodd" d="M16.0002 5.33331C10.109 5.33331 5.3335 10.1098 5.3335 16C5.3335 21.8901 10.109 26.6666 16.0002 26.6666C21.8903 26.6666 26.6668 21.8901 26.6668 16C26.6668 10.1098 21.8903 5.33331 16.0002 5.33331ZM16.0002 5.35464C21.8701 5.35464 26.6455 10.1301 26.6455 16C26.6455 21.8698 21.8701 26.6453 16.0002 26.6453C10.1303 26.6453 5.35486 21.8698 5.35486 16C5.35486 10.1301 10.1303 5.35464 16.0002 5.35464Z" fill="#FD6767"/>
</g>
</g>
<path d="M24 8L8 24" stroke="black" stroke-width="2.66667"/>
<path d="M8 8L24 24" stroke="black" stroke-width="2.66667"/>
</svg>
